# xmcd
#
# Track frame offsets: 
#        150
#        15901
#        30640
#        52258
#        71721
#        92946
#        108323
#        127911
#        152247
#        175745
#        192009
#        212828
#        226808
#        257373
#        272982
#
# Disc length: 3905 seconds
#
# Revision: 0
# Processed by: cddbd v1.5.2PL0 Copyright (c) Steve Scherf et al.
# Submitted via: ExactAudioCopy v0.95a5
#
DISCID=c80f3f0f
DTITLE=Magda Pskorczyk , Mahalia - In Honor Of Mahalia Jackson
DYEAR=2011
DGENRE=Blues
TTITLE0=Come opn Children, Let's Sing
TTITLE1=Get Away Jordan
TTITLE2=Just Closer Walk with Thee
TTITLE3=Go Tell It on the Mountain
TTITLE4=Jesus Met the Woman at the Well
TTITLE5=Lord Search My Heart
TTITLE6=Elijah Rock
TTITLE7=How I Got Over
TTITLE8=He's Got the Whole World in His Hands
TTITLE9=Jesus Is With Me
TTITLE10=Trouble of the World
TTITLE11=Keep Your Hand on the Plow
TTITLE12=I'm Goin' to Live the Life I Sing About in My Song
TTITLE13=Grrat Gettin' up Morning
TTITLE14=Summertime
EXTD=
EXTT0=
EXTT1=
EXTT2=
EXTT3=
EXTT4=
EXTT5=
EXTT6=
EXTT7=
EXTT8=
EXTT9=
EXTT10=
EXTT11=
EXTT12=
EXTT13=
EXTT14=
PLAYORDER=
